<?xml version="1.0" encoding="utf-8" ?><svg xmlns="http://www.w3.org/2000/svg" xmlns:xlink="http://www.w3.org/1999/xlink" width="1024" height="1024" viewBox="0 0 1024 1024"><defs><linearGradient id="gradient_0" gradientUnits="userSpaceOnUse" x1="507.15875" y1="1024.588" x2="516.35486" y2="-1.1103258"><stop offset="0" stop-color="#1B1B1B"/><stop offset="1" stop-color="#454545"/></linearGradient></defs><path fill="url(#gradient_0)" d="M219.711 0L801.332 0C806.622 1.27306 812.717 1.17206 818.132 2.04555C829.077 3.81099 840.029 5.60639 850.813 8.21644C906.388 21.8275 954.619 56.2521 985.554 104.387C1006.61 137.216 1018.54 176.686 1022.53 215.392C1023.01 219.999 1022.82 226.215 1024 230.616L1024 793.757C1023.45 796.372 1023.17 799.514 1022.97 802.21C1017.7 873.625 985.289 941.232 925.144 981.946C896.993 1001.11 865.042 1013.97 831.469 1019.67C825.794 1020.68 820.082 1021.47 814.346 1022.05C810.271 1022.46 802.371 1023.08 798.773 1024L223.619 1024C217.103 1022.22 199.035 1020.73 190.905 1019.3C159.712 1013.93 129.96 1002.18 103.504 984.807C55.5767 953.021 21.5295 904.2 8.26402 848.241C3.93446 830.073 3.47199 814.154 0 797.351L0 230.713C1.11791 227.227 1.34146 217.561 1.7503 213.544C2.33201 207.828 2.94558 202.382 3.80232 196.659C9.19907 161.363 22.342 127.699 42.2879 98.0828C72.7744 53.5433 118.419 21.6117 170.711 8.24196C179.206 6.15549 187.797 4.48035 196.453 3.2224C203.563 2.2342 212.859 1.33287 219.711 0Z"/><path fill="#2B2B2B" d="M449.034 234.879C499.323 210.025 548.159 214.361 599.946 231.869C677.106 258.594 740.424 314.983 775.874 388.543C816.015 470.016 810.228 559.91 734.03 617.882C726.734 623.433 718.864 627.458 711.456 632.583C703.973 646.261 695.531 658.275 687.046 671.234C675.02 689.6 663.298 706.615 649.774 723.954C645.271 729.644 641.603 733.794 636.373 738.821C634.122 742.011 632.501 743.786 629.776 746.643C625.021 751.654 610.771 766.122 605.432 769.043C590.446 780.536 574.628 790.612 556.629 796.771C526.236 808.766 491.327 808.277 459.875 801.705C380.287 785.074 311.346 736.776 267.078 668.74C237.777 623.707 214.212 559.791 225.277 505.502C232.48 470.156 256.803 434.422 283.943 411.249C293.354 403.214 302.745 397.096 313.005 390.325C315.911 384.456 322.447 374.843 326.237 368.898C338.098 350.013 350.686 331.595 363.972 313.684C371.141 303.907 378.593 293.074 387.519 284.865C391.468 277.985 401.935 269.002 407.953 263.511C410.376 261.282 414.356 257.444 416.947 255.727C423.79 248.942 440.246 239.048 449.034 234.879Z"/><defs><linearGradient id="gradient_1" gradientUnits="userSpaceOnUse" x1="451.62921" y1="441.10205" x2="799.26215" y2="439.19278"><stop offset="0" stop-color="#DA8C25"/><stop offset="1" stop-color="#FCC24D"/></linearGradient></defs><path fill="url(#gradient_1)" d="M449.034 234.879C499.323 210.025 548.159 214.361 599.946 231.869C677.106 258.594 740.424 314.983 775.874 388.543C816.015 470.016 810.228 559.91 734.03 617.882C726.734 623.433 718.864 627.458 711.456 632.583C703.973 646.261 695.531 658.275 687.046 671.234C675.02 689.6 663.298 706.615 649.774 723.954C649.307 723.804 648.776 723.659 648.354 723.403C644.724 721.201 604.114 670.258 603.326 667.732C603.274 667.566 603.234 667.397 603.186 667.23C602.997 666.58 602.817 665.944 602.652 665.286L603.883 663.573L603.183 662.669C619.842 656.474 630.472 649.281 644.466 638.828C647.01 635.179 653.446 628.448 656.75 624.293C668.02 610.172 676.609 594.108 682.093 576.894C691.396 547.541 690.896 515.958 680.671 486.913C677.272 477.509 673.453 470.26 668.866 461.479C635.885 411.86 608.24 394.658 552.929 374.617C514.762 363.144 462.091 352.673 422.461 360.755C416.823 357.398 376.151 367.878 367.557 369.901C349.896 374.058 330.446 384.184 313.005 390.325C315.911 384.456 322.447 374.843 326.237 368.898C338.098 350.013 350.686 331.595 363.972 313.684C371.141 303.907 378.593 293.074 387.519 284.865C391.468 277.985 401.935 269.002 407.953 263.511C410.376 261.282 414.356 257.444 416.947 255.727C423.79 248.942 440.246 239.048 449.034 234.879Z"/><defs><linearGradient id="gradient_2" gradientUnits="userSpaceOnUse" x1="372.12561" y1="393.09641" x2="724.11023" y2="491.28918"><stop offset="0" stop-color="#A4541A"/><stop offset="1" stop-color="#E08726"/></linearGradient></defs><path fill="url(#gradient_2)" d="M449.034 234.879C452.214 239.104 476.151 255.031 482.369 257.505C486.748 259.247 500.33 260.416 504.466 264.137C580.088 286.589 644.454 344.333 681.355 413.181C715.263 476.446 729.331 564.416 671.114 618.848C666.547 623.102 649.713 637.693 644.466 638.828C647.01 635.179 653.446 628.448 656.75 624.293C668.02 610.172 676.609 594.108 682.093 576.894C691.396 547.541 690.896 515.958 680.671 486.913C677.272 477.509 673.453 470.26 668.866 461.479C635.885 411.86 608.24 394.658 552.929 374.617C514.762 363.144 462.091 352.673 422.461 360.755C416.823 357.398 376.151 367.878 367.557 369.901C349.896 374.058 330.446 384.184 313.005 390.325C315.911 384.456 322.447 374.843 326.237 368.898C338.098 350.013 350.686 331.595 363.972 313.684C371.141 303.907 378.593 293.074 387.519 284.865C391.468 277.985 401.935 269.002 407.953 263.511C410.376 261.282 414.356 257.444 416.947 255.727C423.79 248.942 440.246 239.048 449.034 234.879Z"/><defs><linearGradient id="gradient_3" gradientUnits="userSpaceOnUse" x1="393.75406" y1="439.66846" x2="482.56223" y2="304.3053"><stop offset="0" stop-color="#A25916"/><stop offset="1" stop-color="#E8A730"/></linearGradient></defs><path fill="url(#gradient_3)" d="M407.953 263.511C407.704 268.155 408.186 273.224 411.247 276.946C420.969 275.339 428.99 274.562 438.825 275.479C443.948 283.179 462.059 291.289 470.248 296.161C492.493 309.396 513.58 323.855 532.377 341.748C544.08 352.888 547.034 359.946 552.929 374.617C514.762 363.144 462.091 352.673 422.461 360.755C416.823 357.398 376.151 367.878 367.557 369.901C349.896 374.058 330.446 384.184 313.005 390.325C315.911 384.456 322.447 374.843 326.237 368.898C338.098 350.013 350.686 331.595 363.972 313.684C371.141 303.907 378.593 293.074 387.519 284.865C391.468 277.985 401.935 269.002 407.953 263.511Z"/><path fill="#A05419" d="M407.953 263.511C407.704 268.155 408.186 273.224 411.247 276.946C401.187 279.244 396.45 282.066 387.519 284.865C391.468 277.985 401.935 269.002 407.953 263.511Z"/><path fill="#F2AF39" d="M438.825 275.479C500.428 277.285 561.391 320.783 602.07 363.998C618.747 381.759 633.944 400.854 647.511 421.09C649.15 423.578 651.712 427.509 652.991 430.115C656.589 437.452 669.498 453.57 668.866 461.479C635.885 411.86 608.24 394.658 552.929 374.617C547.034 359.946 544.08 352.888 532.377 341.748C513.58 323.855 492.493 309.396 470.248 296.161C462.059 291.289 443.948 283.179 438.825 275.479Z"/><path fill="#D58624" d="M449.034 234.879C452.214 239.104 476.151 255.031 482.369 257.505C486.748 259.247 500.33 260.416 504.466 264.137C500.047 264.069 489.386 260.779 484.592 259.601C477.92 257.962 472.27 256.625 465.307 255.745C456.624 254.668 447.867 254.301 439.124 254.65C432.517 254.959 423.883 255.886 417.525 255.745L416.947 255.727C423.79 248.942 440.246 239.048 449.034 234.879Z"/><defs><linearGradient id="gradient_4" gradientUnits="userSpaceOnUse" x1="704.4986" y1="629.01996" x2="624.01685" y2="695.12903"><stop offset="0" stop-color="#9F5611"/><stop offset="1" stop-color="#C68224"/></linearGradient></defs><path fill="url(#gradient_4)" d="M603.883 663.573C607.977 664.154 616.573 662.425 621.026 661.748C653.837 656.759 681.326 645.663 711.456 632.583C703.973 646.261 695.531 658.275 687.046 671.234C675.02 689.6 663.298 706.615 649.774 723.954C649.307 723.804 648.776 723.659 648.354 723.403C644.724 721.201 604.114 670.258 603.326 667.732C603.274 667.566 603.234 667.397 603.186 667.23C602.997 666.58 602.817 665.944 602.652 665.286L603.883 663.573Z"/><defs><linearGradient id="gradient_5" gradientUnits="userSpaceOnUse" x1="584.53394" y1="602.51697" x2="219.2993" y2="547.56805"><stop offset="0" stop-color="#DA8C24"/><stop offset="1" stop-color="#FDC34B"/></linearGradient></defs><path fill="url(#gradient_5)" d="M313.005 390.325C330.446 384.184 349.896 374.058 367.557 369.901C376.151 367.878 416.823 357.398 422.461 360.755C405.958 366.88 397.19 370.105 383.447 381.67C376.113 389.102 369.975 395.21 363.635 403.586C344.979 428.492 334.945 458.798 335.05 489.916C335.246 522.553 343.878 540.932 359.173 567.97C367.108 578.876 375.262 590.095 384.927 599.573C421.074 635.021 473.38 653.462 522.513 661.199C546.776 665.019 579.382 668.81 603.183 662.669L603.883 663.573L602.652 665.286C602.817 665.944 602.997 666.58 603.186 667.23C603.234 667.397 603.274 667.566 603.326 667.732C604.114 670.258 644.724 721.201 648.354 723.403C648.776 723.659 649.307 723.804 649.774 723.954C645.271 729.644 641.603 733.794 636.373 738.821C634.122 742.011 632.501 743.786 629.776 746.643C625.021 751.654 610.771 766.122 605.432 769.043C590.446 780.536 574.628 790.612 556.629 796.771C526.236 808.766 491.327 808.277 459.875 801.705C380.287 785.074 311.346 736.776 267.078 668.74C237.777 623.707 214.212 559.791 225.277 505.502C232.48 470.156 256.803 434.422 283.943 411.249C293.354 403.214 302.745 397.096 313.005 390.325Z"/><defs><linearGradient id="gradient_6" gradientUnits="userSpaceOnUse" x1="659.44482" y1="622.3858" x2="300.92355" y2="534.82776"><stop offset="0" stop-color="#A35517"/><stop offset="1" stop-color="#E28A27"/></linearGradient></defs><path fill="url(#gradient_6)" d="M553.114 767.046C442.398 749.601 336.487 647.967 316.156 537.545C308.934 498.316 313.224 455.763 336.76 422.626C345.552 410.247 368.627 384.383 383.447 381.67C376.113 389.102 369.975 395.21 363.635 403.586C344.979 428.492 334.945 458.798 335.05 489.916C335.246 522.553 343.878 540.932 359.173 567.97C367.108 578.876 375.262 590.095 384.927 599.573C421.074 635.021 473.38 653.462 522.513 661.199C546.776 665.019 579.382 668.81 603.183 662.669L603.883 663.573L602.652 665.286C602.817 665.944 602.997 666.58 603.186 667.23C603.234 667.397 603.274 667.566 603.326 667.732C604.114 670.258 644.724 721.201 648.354 723.403C648.776 723.659 649.307 723.804 649.774 723.954C645.271 729.644 641.603 733.794 636.373 738.821C634.122 742.011 632.501 743.786 629.776 746.643C625.021 751.654 610.771 766.122 605.432 769.043C590.446 780.536 574.628 790.612 556.629 796.771C555.849 794.954 556.444 795.603 555.01 794.57C553.726 794.676 553.484 794.74 552.226 794.562C547.691 789.344 549.927 774.126 551.348 767.832L553.114 767.046Z"/><defs><linearGradient id="gradient_7" gradientUnits="userSpaceOnUse" x1="556.87933" y1="606.32037" x2="448.71915" y2="692.8053"><stop offset="0" stop-color="#C58023"/><stop offset="1" stop-color="#F9BA3C"/></linearGradient></defs><path fill="url(#gradient_7)" d="M629.345 741.502C603.292 753.284 571.539 751.013 544.764 742.46C480.489 721.726 428.753 671.537 388.871 618.759C383.425 611.552 356.699 575.698 359.173 567.97C367.108 578.876 375.262 590.095 384.927 599.573C421.074 635.021 473.38 653.462 522.513 661.199C546.776 665.019 579.382 668.81 603.183 662.669L603.883 663.573L602.652 665.286C602.817 665.944 602.997 666.58 603.186 667.23C603.234 667.397 603.274 667.566 603.326 667.732C604.114 670.258 644.724 721.201 648.354 723.403C648.776 723.659 649.307 723.804 649.774 723.954C645.271 729.644 641.603 733.794 636.373 738.821C634.122 742.011 632.501 743.786 629.776 746.643C629.888 744.137 629.943 743.886 629.345 741.502Z"/><path fill="#A05419" d="M636.373 738.821C634.122 742.011 632.501 743.786 629.776 746.643C629.888 744.137 629.943 743.886 629.345 741.502C631.742 740.491 633.936 739.693 636.373 738.821Z"/><path fill="#D58624" d="M553.114 767.046C562.187 768.239 568.994 768.855 578.178 768.939C582.849 768.982 602.842 767.521 605.432 769.043C590.446 780.536 574.628 790.612 556.629 796.771C555.849 794.954 556.444 795.603 555.01 794.57C553.726 794.676 553.484 794.74 552.226 794.562C547.691 789.344 549.927 774.126 551.348 767.832L553.114 767.046Z"/><defs><linearGradient id="gradient_8" gradientUnits="userSpaceOnUse" x1="519.86633" y1="511.62595" x2="582.08362" y2="539.18231"><stop offset="0" stop-color="#3C1F8D"/><stop offset="1" stop-color="#B544E5"/></linearGradient></defs><path fill="url(#gradient_8)" d="M511.552 435.488C525.316 435.403 538.844 439.058 550.692 446.061C568.229 456.237 580.941 473.032 585.973 492.672C591.141 512.397 588.16 533.371 577.701 550.875C567.199 568.423 550.116 581.041 530.256 585.92C523.926 587.482 518.507 587.934 512.041 588.142C494.456 587.592 481.114 583.717 466.784 573.167C464.658 571.478 462.388 569.682 460.402 567.844C445.601 554.145 436.819 535.148 435.973 514.998C435.123 494.602 442.49 474.718 456.425 459.801C471.234 443.944 490.076 436.246 511.552 435.488Z"/><path fill="#049DF7" d="M466.784 573.167C464.658 571.478 462.388 569.682 460.402 567.844C445.601 554.145 436.819 535.148 435.973 514.998C435.123 494.602 442.49 474.718 456.425 459.801C471.234 443.944 490.076 436.246 511.552 435.488L511.936 480.501C511.929 493.049 511.132 503.376 512.153 516.143C512.767 520.598 512.557 528.493 512.61 533.308C512.385 551.801 511.994 569.591 512.041 588.142C494.456 587.592 481.114 583.717 466.784 573.167Z"/><path fill="#0A42FA" d="M512.153 516.143C512.767 520.598 512.557 528.493 512.61 533.308C512.385 551.801 511.994 569.591 512.041 588.142C494.456 587.592 481.114 583.717 466.784 573.167C471.209 565.695 472.617 557.737 476.244 550.446C481.958 538.959 499.907 520.223 512.153 516.143Z"/><defs><linearGradient id="gradient_9" gradientUnits="userSpaceOnUse" x1="497.32413" y1="470.32254" x2="532.94537" y2="486.30548"><stop offset="0" stop-color="#091557"/><stop offset="1" stop-color="#391E91"/></linearGradient></defs><path fill="url(#gradient_9)" d="M511.552 435.488C525.316 435.403 538.844 439.058 550.692 446.061C544.088 459.775 538.129 473.898 531.911 487.805C527.826 496.942 523.034 506.785 519.747 516.1C517.42 522.694 512.51 524.042 513.072 531.146C513.125 531.81 512.842 532.671 512.61 533.308C512.557 528.493 512.767 520.598 512.153 516.143C511.132 503.376 511.929 493.049 511.936 480.501L511.552 435.488Z"/></svg>